<svg width="156" height="157" viewBox="0 0 156 157" fill="none" xmlns="http://www.w3.org/2000/svg">
<path opacity="0.1" d="M150 79.0933C150 118.77 117.775 150.952 78 150.952C38.2252 150.952 6 118.77 6 79.0933C6 39.4171 38.2252 7.23462 78 7.23462C117.775 7.23462 150 39.4171 150 79.0933Z" stroke="#1E266D" stroke-width="12"/>
<path fill-rule="evenodd" clip-rule="evenodd" d="M101.4 144.472C101.4 141.9 103.004 139.622 105.345 138.558C128.156 128.182 144 105.227 144 78.5991C144 44.2614 117.653 16.0317 83.9956 13.0084C80.6952 12.7119 78 10.0541 78 6.74038V6.74038C78 3.42667 80.6957 0.716403 83.9999 0.967299C124.275 4.02546 156 37.6141 156 78.5991C156 110.493 136.788 137.909 109.285 149.942C105.46 151.616 101.4 148.647 101.4 144.472V144.472Z" fill="#FF7944"/>
</svg>
