<svg width="30" height="30" viewBox="0 0 30 30" fill="none" xmlns="http://www.w3.org/2000/svg">
<path d="M14.9883 7.2724C12.9453 7.2724 10.986 8.08273 9.54132 9.52513C8.09669 10.9675 7.2851 12.9238 7.2851 14.9637C7.2851 17.0035 8.09669 18.9598 9.54132 20.4022C10.986 21.8446 12.9453 22.655 14.9883 22.655C17.0314 22.655 18.9907 21.8446 20.4354 20.4022C21.88 18.9598 22.6916 17.0035 22.6916 14.9637C22.6916 12.9238 21.88 10.9675 20.4354 9.52513C18.9907 8.08273 17.0314 7.2724 14.9883 7.2724ZM14.9883 19.9587C13.6611 19.9587 12.3882 19.4323 11.4497 18.4952C10.5111 17.5581 9.9839 16.2872 9.9839 14.962C9.9839 13.6368 10.5111 12.3659 11.4497 11.4288C12.3882 10.4918 13.6611 9.96535 14.9883 9.96535C16.3156 9.96535 17.5885 10.4918 18.527 11.4288C19.4655 12.3659 19.9928 13.6368 19.9928 14.962C19.9928 16.2872 19.4655 17.5581 18.527 18.4952C17.5885 19.4323 16.3156 19.9587 14.9883 19.9587Z" fill="#FF7944"/>
<path d="M22.9964 8.78269C23.9883 8.78269 24.7923 7.9799 24.7923 6.98961C24.7923 5.99932 23.9883 5.19653 22.9964 5.19653C22.0046 5.19653 21.2006 5.99932 21.2006 6.98961C21.2006 7.9799 22.0046 8.78269 22.9964 8.78269Z" fill="#FF7944"/>
<path d="M29.2054 5.16658C28.8197 4.1722 28.2303 3.26918 27.475 2.51531C26.7197 1.76145 25.815 1.17335 24.819 0.788667C23.6534 0.351803 22.422 0.115582 21.1773 0.0900643C19.573 0.0202041 19.0649 0.000244141 14.9967 0.000244141C10.9285 0.000244141 10.407 0.000243973 8.81608 0.0900643C7.57228 0.114277 6.34178 0.350546 5.1777 0.788667C4.18137 1.1729 3.27648 1.76084 2.5211 2.51476C1.76572 3.26868 1.17652 4.17194 0.791315 5.16658C0.353684 6.33027 0.117639 7.55985 0.0932919 8.80264C0.021657 10.4028 0 10.9101 0 14.9736C0 19.0355 -1.24121e-08 19.5528 0.0932919 21.1446C0.118281 22.3888 0.353176 23.6163 0.791315 24.7823C1.17761 25.7766 1.76737 26.6795 2.52294 27.4333C3.2785 28.1872 4.18325 28.7753 5.17937 29.1603C6.34124 29.6147 7.57225 29.8678 8.81941 29.9088C10.4237 29.9786 10.9318 30.0002 15 30.0002C19.0682 30.0002 19.5896 30.0002 21.1806 29.9088C22.4252 29.8835 23.6565 29.6478 24.8223 29.2118C25.8181 28.8262 26.7225 28.2376 27.4777 27.4836C28.233 26.7295 28.8225 25.8265 29.2087 24.8322C29.6468 23.6679 29.8817 22.4404 29.9067 21.1962C29.9783 19.5961 30 19.0887 30 15.0252C30 10.9617 30 10.446 29.9067 8.8542C29.8873 7.59384 29.65 6.3463 29.2054 5.16658ZM27.1763 21.0215C27.1655 21.9801 26.9903 22.9298 26.6582 23.8293C26.408 24.4761 26.025 25.0635 25.5338 25.5536C25.0426 26.0438 24.4541 26.4258 23.8061 26.6752C22.9152 27.0053 21.9742 27.1803 21.024 27.1925C19.4414 27.2657 18.9949 27.284 14.9367 27.284C10.8752 27.284 10.4604 27.284 8.84773 27.1925C7.89804 27.1809 6.95745 27.0059 6.0673 26.6752C5.41707 26.4274 4.82619 26.046 4.33289 25.5557C3.83959 25.0655 3.45486 24.4773 3.20358 23.8293C2.87613 22.9395 2.70099 22.001 2.68547 21.0531C2.61384 19.473 2.59718 19.0272 2.59718 14.9753C2.59718 10.9217 2.59718 10.5076 2.68547 8.89579C2.69624 7.93774 2.87148 6.98863 3.20358 6.08973C3.71168 4.77736 4.75289 3.74442 6.0673 3.24209C6.95789 2.91299 7.8982 2.73804 8.84773 2.7248C10.432 2.65327 10.8768 2.63331 14.9367 2.63331C18.9966 2.63331 19.413 2.63331 21.024 2.7248C21.9742 2.73621 22.9154 2.91121 23.8061 3.24209C24.454 3.49205 25.0424 3.8745 25.5336 4.3649C26.0248 4.8553 26.4078 5.44281 26.6582 6.08973C26.9856 6.97953 27.1607 7.91801 27.1763 8.86585C27.2479 10.4477 27.2662 10.8918 27.2662 14.9454C27.2662 18.9973 27.2662 19.433 27.1946 21.0232H27.1763V21.0215Z" fill="#FF7944"/>
</svg>
