<svg width="151" height="80" viewBox="0 0 151 80" fill="none" xmlns="http://www.w3.org/2000/svg">
<path d="M21.4727 16.3387C21.3631 17.2927 21.1193 18.2263 20.7488 19.1114C20.5662 19.4914 20.4455 19.8984 20.3913 20.3168C20.0669 22.7099 18.6919 24.4659 16.8602 25.7535C16.5843 25.9488 16.2996 26.1309 16.0061 26.304L15.9619 26.3284L15.8383 26.3995H15.8207C15.4389 26.6215 15.0416 26.8191 14.6355 27.0055C14.2294 27.192 13.841 27.3541 13.4349 27.5072C13.0289 27.6604 12.5786 27.8136 12.1483 27.9512C9.41224 28.7587 6.58525 29.213 3.73529 29.3032C7.30176 28.6683 9.77798 27.4229 11.42 26.2485C13.4062 24.8189 14.1809 23.498 14.1809 23.498C14.2383 23.447 14.2957 23.3959 14.3486 23.3448C17.7209 20.2258 18.8597 16.7938 19.0914 14.363H19.1311C19.2338 13.612 19.2987 12.8562 19.3253 12.0986C20.1554 13.4505 20.8736 14.8686 21.4727 16.3387Z" fill="white"/>
<path d="M19.0915 14.363C18.8553 16.8338 17.6922 20.3369 14.1898 23.4958C5.5561 29.7272 0.947937 27.1521 0.947937 27.1521C2.6451 25.8623 4.0686 24.2662 4.88738 22.3348C5.14118 21.7554 5.39719 21.1938 5.66865 20.6765C8.28391 15.6972 13.7241 13.5416 19.0915 14.363Z" fill="white"/>
<path d="M21.7134 7.95849C21.7134 7.95849 21.9936 12.7425 21.4728 16.3388C20.8733 14.8709 20.1551 13.455 19.3254 12.1053C19.4137 10.1296 19.3453 8.17161 19.3453 8.17161C19.166 6.76667 18.6039 5.43901 17.7209 4.33555C17.3592 3.89032 17.1591 3.33436 17.1537 2.75939V2.46636C17.1535 2.1422 17.2168 1.82117 17.34 1.52167C17.4633 1.22216 17.6441 0.950054 17.872 0.720945C18.1 0.491835 18.3707 0.310222 18.6686 0.186511C18.9664 0.062799 19.2856 -0.000580194 19.6079 4.00207e-06H20.2347C20.5568 -0.000287993 20.8757 0.0633068 21.1733 0.187149C21.471 0.310992 21.7414 0.492651 21.9691 0.721731C22.1969 0.950811 22.3775 1.22282 22.5006 1.52218C22.6237 1.82154 22.6869 2.14239 22.6866 2.46636V2.59067C22.6854 3.93872 23.0063 5.26732 23.6224 6.46447C24.9576 9.0618 27.2992 13.8036 27.7274 15.9192C27.7274 15.9192 23.4767 9.22608 21.7134 7.95849Z" fill="white"/>
<path d="M15.8251 46.945H13.4349V27.5272C13.8432 27.374 14.2449 27.2075 14.6355 27.0255C15.0262 26.8435 15.4411 26.6392 15.8251 26.4172C15.4499 26.6392 14.6355 27.263 14.6355 28.1932V45.1535C14.6334 45.2964 14.6745 45.4366 14.7533 45.5555C14.8321 45.6744 14.945 45.7665 15.0769 45.8195C15.3061 45.9001 15.5031 46.0534 15.6381 46.2565C15.773 46.4595 15.8387 46.7012 15.8251 46.945Z" fill="white"/>
<path d="M17.5333 15.3442C16.5005 18.5587 13.19 25.556 3.78168 26.3618C4.9691 24.9725 5.93679 23.4076 6.65074 21.7221C8.94378 16.3499 14.5627 15.4353 17.5333 15.3442Z" fill="white"/>
<path d="M33.9135 28.5706L31.2055 36.3848H27.7274L36.5795 11.5437H40.6403L49.5322 36.3848H45.9371L43.1541 28.5706H33.9135ZM42.4567 26.0643L39.9054 18.9139C39.325 17.2911 38.9388 15.806 38.5526 14.3786H38.4665C38.0803 15.8526 37.6543 17.3644 37.1423 18.8762L34.591 26.0643H42.4567Z" fill="white"/>
<path d="M50.6533 11.8368C52.7899 11.5055 54.9492 11.3452 57.1109 11.3573C60.4346 11.3573 62.8711 12.0944 64.4182 13.4219C65.8483 14.6007 66.698 16.4077 66.698 18.6188C66.698 20.8676 66.0028 22.6369 64.6874 23.9266C62.9086 25.7337 60.0109 26.655 56.7225 26.655C55.8152 26.6824 54.9076 26.608 54.0167 26.433V36.385H50.6533V11.8368ZM54.0167 23.8245C54.9311 24.0202 55.8652 24.1066 56.7997 24.082C60.8606 24.082 63.3346 22.204 63.3346 18.7742C63.3346 15.4931 60.9069 13.908 57.1882 13.908C55.7183 13.908 54.5972 14.019 54.0167 14.1678V23.8245Z" fill="white"/>
<path d="M73.4647 14.2698H65.5372V11.5437H84.8306V14.2698H76.8678V36.3848H73.4647V14.2698Z" fill="white"/>
<path d="M89.9727 25.2163V27.6116H80.4232V25.2163H89.9727Z" fill="white"/>
<path d="M93.1816 22.3793H105.32C104.896 17.5864 101.765 13.7903 96.3906 13.7903C94.3028 13.7903 92.4865 14.3431 90.8224 15.0424L90.0102 12.5738C91.8663 11.799 94.1086 11.1353 96.5848 11.1353C104.779 11.1353 108.955 16.7761 108.955 24.0109C108.955 32.1581 103.312 36.8022 96.3906 36.8022C93.7996 36.8022 91.4426 36.3227 89.5865 35.5124L90.3302 32.9573C92.1096 33.6957 94.0134 34.0838 95.9382 34.1005C101.698 34.1005 105.139 30.118 105.371 24.9588H93.1816V22.3793Z" fill="white"/>
<path d="M113.945 11.5437V22.5657H114.989L123.918 11.5437H127.977L118.118 22.932C122.411 23.4848 124.077 25.9911 125.426 29.3454C126.392 31.8872 127.127 34.1738 128.295 36.3848H124.653C123.724 34.6888 122.989 32.4777 122.294 30.5242C121.096 27.2431 119.425 24.9943 115.026 24.9943H113.945V36.3848H110.617V11.5437H113.945Z" fill="white"/>
<path d="M150.402 23.7046C150.402 32.258 144.951 36.7911 138.301 36.7911C131.417 36.7911 126.584 31.703 126.584 24.1841C126.584 16.2966 131.726 11.1353 138.687 11.1353C145.8 11.1353 150.402 16.3321 150.402 23.7046ZM130.182 24.1108C130.182 29.4187 133.196 34.1738 138.493 34.1738C143.83 34.1738 146.844 29.4919 146.844 23.8533C146.844 18.9139 144.138 13.7526 138.533 13.7526C132.965 13.7637 130.182 18.6475 130.182 24.1108Z" fill="white"/>
<path d="M28.6123 44.3167V47.7531H28.9191L31.5674 44.3167H32.768L29.8548 47.8686C31.1216 48.0395 31.6204 48.8209 32.0133 49.8665C32.2529 50.614 32.5351 51.3471 32.8585 52.062H31.7859C31.5093 51.471 31.2762 50.8604 31.0885 50.235C30.7332 49.2116 30.2433 48.5101 28.9412 48.5101H28.6211V52.062H27.6368V44.3167H28.6123Z" fill="white"/>
<path d="M38.2457 46.501V52.0619H37.2526V47.2846H35.3546V48.732C35.3546 50.286 35.2067 51.3404 34.4872 51.8133C34.1741 52.0607 33.7812 52.1832 33.3838 52.1574L33.28 51.3649C33.4782 51.336 33.6666 51.2599 33.8296 51.1429C34.3438 50.7633 34.4012 49.9818 34.4012 48.7409V46.501H38.2457Z" fill="white"/>
<path d="M40.8257 46.5011V48.8387C40.8257 49.7267 40.8147 50.275 40.7683 51.0587L40.8036 51.0698C41.1347 50.3927 41.3289 50.002 41.6864 49.3582L43.4123 46.4856H44.5886V52.0466H43.6285V49.7067C43.6285 48.7988 43.6506 48.3282 43.697 47.4313H43.6617C43.3085 48.1439 43.068 48.5923 42.748 49.154C42.2227 50.0175 41.618 51.0853 41.0221 52.0621H39.8789V46.5011H40.8257Z" fill="white"/>
<path d="M47.2016 46.501V48.7409H49.8301V46.501H50.8255V52.0619H49.8323V49.5445H47.2016V52.0619H46.2085V46.501H47.2016Z" fill="white"/>
<path d="M53.3944 46.5011V48.8387C53.3944 49.7267 53.3944 50.275 53.3392 51.0587L53.3723 51.0698C53.7034 50.3927 53.8976 50.002 54.2551 49.3582L55.981 46.4856H57.1573V52.0466H56.1972V49.7067C56.1972 48.7988 56.2193 48.3282 56.2657 47.4313H56.2326C55.8772 48.1439 55.6367 48.5923 55.3167 49.154C54.7914 50.0175 54.1867 51.0853 53.593 52.0621H52.4388V46.5011H53.3944Z" fill="white"/>
<path d="M59.7946 46.501V48.9141H60.0352L62.1141 46.501H63.3368L60.9246 49.0162C61.8074 49.1094 62.3547 49.7066 62.7873 50.7055C62.9578 51.1696 63.1568 51.6226 63.3831 52.0619H62.3304C62.1277 51.6982 61.9557 51.318 61.8162 50.9253C61.4388 50.0373 60.9334 49.6156 59.9888 49.6156H59.7946V52.0575H58.7993V46.501H59.7946Z" fill="white"/>
<path d="M67.4506 52.0621L67.369 51.3606H67.3359C67.1397 51.6237 66.884 51.836 66.59 51.98C66.2961 52.124 65.9722 52.1955 65.6453 52.1886C64.5242 52.1886 63.9526 51.3961 63.9526 50.5925C63.9526 49.2472 65.1421 48.5102 67.2785 48.5235V48.408C67.2785 47.9485 67.1527 47.1205 66.0227 47.1205C65.5138 47.1228 65.0153 47.2656 64.5816 47.5334L64.3609 46.8674C64.909 46.5366 65.538 46.3659 66.1772 46.3746C67.8677 46.3746 68.2782 47.5334 68.2782 48.65V50.7301C68.2714 51.1759 68.3024 51.6216 68.3709 52.0621H67.4506ZM67.3006 49.2228C66.1971 49.2006 64.959 49.3959 64.959 50.477C64.9473 50.6058 64.9638 50.7356 65.0072 50.8573C65.0506 50.9791 65.1199 51.0898 65.2103 51.1818C65.3007 51.2737 65.4099 51.3447 65.5304 51.3898C65.6509 51.4349 65.7798 51.4529 65.908 51.4427C66.2002 51.4506 66.4873 51.3644 66.7275 51.1967C66.9677 51.029 67.1483 50.7885 67.2432 50.5103C67.2795 50.4069 67.2989 50.2982 67.3006 50.1884V49.2228Z" fill="white"/>
<path d="M27.5949 61.1461C27.5949 60.4335 27.5706 59.8607 27.5485 59.3302H28.4512L28.4975 60.2847H28.5196C28.7194 59.9424 29.0078 59.661 29.3542 59.4706C29.7005 59.2802 30.0916 59.1879 30.486 59.2036C31.8102 59.2036 32.8276 60.3424 32.8276 62.0318C32.8276 64.0298 31.616 65.0199 30.3139 65.0199C29.9795 65.0344 29.6471 64.9617 29.3489 64.8089C29.0508 64.656 28.797 64.4281 28.6123 64.1474H28.588V67.1688H27.5949V61.1461ZM28.588 62.629C28.5912 62.7685 28.6067 62.9074 28.6344 63.0441C28.7171 63.3829 28.9108 63.6838 29.1842 63.8985C29.4576 64.1131 29.7949 64.2289 30.1417 64.2273C31.2055 64.2273 31.8212 63.3549 31.8212 62.0784C31.8212 60.9685 31.2386 60.0095 30.177 60.0095C29.8216 60.0195 29.4794 60.1478 29.2042 60.3744C28.9291 60.601 28.7364 60.913 28.6564 61.2615C28.6165 61.3965 28.5935 61.5359 28.588 61.6766V62.629Z" fill="white"/>
<path d="M34.655 62.296C34.6792 63.6635 35.5378 64.2273 36.553 64.2273C37.078 64.2435 37.6004 64.1458 38.0846 63.941L38.2545 64.6647C37.6725 64.9078 37.0461 65.025 36.4161 65.0087C34.7124 65.0087 33.6971 63.8832 33.6971 62.205C33.6971 60.5267 34.6792 59.2036 36.2903 59.2036C38.0956 59.2036 38.5746 60.802 38.5746 61.8254C38.5729 61.9828 38.5619 62.1399 38.5414 62.296H34.655ZM37.6035 61.5723C37.6035 60.9285 37.3409 59.9295 36.2109 59.9295C35.1935 59.9295 34.7477 60.8708 34.666 61.5723H37.6035Z" fill="white"/>
<path d="M44.3679 59.3301V64.8933H43.3637V60.1359H40.7926V64.8933H39.7906V59.3301H44.3679Z" fill="white"/>
<path d="M46.0033 61.1461C46.0033 60.4335 45.979 59.8607 45.9569 59.3302H46.8529L46.8993 60.2847H46.9214C47.1206 59.9424 47.4086 59.661 47.7546 59.4706C48.1006 59.2802 48.4915 59.1879 48.8856 59.2036C50.223 59.2036 51.2294 60.3425 51.2294 62.0318C51.2294 64.0298 50.0177 65.0199 48.7156 65.0199C48.381 65.0342 48.0484 64.9614 47.7499 64.8086C47.4514 64.6557 47.1972 64.428 47.0118 64.1474H46.9898V67.1688H45.9966L46.0033 61.1461ZM46.9964 62.629C46.9985 62.7686 47.014 62.9076 47.0427 63.0441C47.1255 63.3829 47.3192 63.6839 47.5926 63.8985C47.866 64.1131 48.2033 64.229 48.5501 64.2274C49.6139 64.2274 50.2296 63.3549 50.2296 62.0785C50.2296 60.9685 49.647 60.0095 48.5854 60.0095C48.2303 60.0219 47.8892 60.1524 47.6157 60.3805C47.3422 60.6087 47.1515 60.9216 47.0736 61.2704C47.0337 61.4054 47.0108 61.5448 47.0052 61.6855L46.9964 62.629Z" fill="white"/>
<path d="M57.5082 62.0673C57.5082 64.123 56.0913 65.0199 54.7539 65.0199C53.2576 65.0199 52.1055 63.9099 52.1055 62.1584C52.1055 60.2958 53.3172 59.2036 54.8488 59.2036C56.4356 59.2036 57.5082 60.3646 57.5082 62.0673ZM53.1207 62.1251C53.1207 63.3416 53.8181 64.2629 54.8002 64.2629C55.7824 64.2629 56.4798 63.3549 56.4798 62.1006C56.4798 61.1594 56.0119 59.9628 54.8245 59.9628C53.6372 59.9628 53.1207 61.0661 53.1207 62.1251Z" fill="white"/>
<path d="M62.9815 59.3301V64.1362H63.5531L63.4957 66.6537H62.7078L62.6615 64.8777H58.8346L58.7882 66.6537H58.0003L57.954 64.1562H58.4241C58.6598 63.805 58.8442 63.4214 58.9714 63.0174C59.1911 62.2984 59.2991 61.5496 59.2914 60.7975V59.3478L62.9815 59.3301ZM60.183 61.0217C60.1853 61.7206 60.0894 62.4164 59.8983 63.0884C59.7877 63.4479 59.6397 63.7946 59.4569 64.1229H62.0038V60.1004H60.183V61.0217Z" fill="white"/>
<path d="M65.0847 59.3301L66.2963 62.6178C66.4221 62.9863 66.5589 63.4236 66.6494 63.7566H66.6737C66.7752 63.4236 66.8944 62.9974 67.0268 62.5956L68.1303 59.3301H69.1941L67.6845 63.2971C66.965 65.204 66.4751 66.183 65.7887 66.778C65.4415 67.1011 65.0161 67.3269 64.555 67.4329L64.288 66.5826C64.6109 66.4768 64.9106 66.3095 65.1708 66.0898C65.5348 65.7841 65.824 65.3982 66.016 64.9621C66.0559 64.8873 66.0828 64.8062 66.0955 64.7223C66.0866 64.6305 66.0635 64.5406 66.0271 64.4559L63.9812 59.3301H65.0847Z" fill="white"/>
<path d="M71.0965 59.3301V61.7454H71.3348L73.4138 59.3301H74.6365L72.2331 61.8475C73.1159 61.9407 73.661 62.5379 74.0958 63.5369C74.2646 64.0013 74.4629 64.4544 74.6894 64.8933H73.6389C73.4332 64.5298 73.2582 64.1496 73.1159 63.7566C72.7385 62.8687 72.2331 62.4469 71.2885 62.4469H71.0943V64.8888H70.0989V59.3301H71.0965Z" fill="white"/>
<path d="M79.5161 59.3301V60.1359H77.7903V64.8933H76.7971V60.1359H75.0713V59.3301H79.5161Z" fill="white"/>
<path d="M81.3104 59.3302V61.6766C81.3104 62.5646 81.2994 63.1129 81.253 63.8966L81.2883 63.9077C81.6194 63.2306 81.8136 62.8399 82.1711 62.1961L83.897 59.3213H85.0733V64.8845H84.1132V62.538C84.1132 61.63 84.1353 61.1594 84.1817 60.2625H84.1508C83.7977 60.9751 83.5571 61.4236 83.2371 61.9852C82.7118 62.8488 82.1071 63.9166 81.5112 64.8933H80.3592V59.3302H81.3104Z" fill="white"/>
<path d="M86.6932 59.4011C87.2777 59.3134 87.8679 59.2711 88.4588 59.2746C89.3835 59.2746 90.9152 59.4233 90.9152 60.6643C90.9152 61.3547 90.3899 61.7743 89.7609 61.9164V61.9363C90.5731 62.0495 91.1668 62.5113 91.1668 63.3149C91.1668 64.7756 89.3394 64.9577 88.2536 64.9577C87.6356 64.9577 86.9956 64.9133 86.7087 64.8889L86.6932 59.4011ZM87.6422 64.2273C87.9108 64.2616 88.1815 64.2771 88.4522 64.2739C89.1275 64.2739 90.1317 64.1119 90.1317 63.3083C90.1317 62.5046 89.3328 62.3315 88.3661 62.3315H87.6356L87.6422 64.2273ZM87.6533 61.6633H88.4059C89.1496 61.6633 89.9154 61.4413 89.9154 60.7908C89.9154 60.2381 89.4343 59.9739 88.4301 59.9739C88.1705 59.9755 87.9112 59.9911 87.6533 60.0205V61.6633Z" fill="white"/>
<path d="M93.4002 59.3301V61.5722H96.0287V59.3301H97.0218V64.8932H96.0287V62.3803H93.4002V64.8977H92.407V59.3301H93.4002Z" fill="white"/>
<path d="M103.671 62.0673C103.671 64.123 102.255 65.0199 100.919 65.0199C99.423 65.0199 98.271 63.9099 98.271 62.1584C98.271 60.2958 99.4804 59.2036 101.012 59.2036C102.599 59.2036 103.671 60.3646 103.671 62.0673ZM99.284 62.1251C99.284 63.3416 99.9814 64.2629 100.963 64.2629C101.946 64.2629 102.645 63.3549 102.645 62.1006C102.645 61.1594 102.175 59.9628 100.988 59.9628C99.8004 59.9628 99.284 61.0661 99.284 62.1251Z" fill="white"/>
<path d="M108.313 59.3301V60.147H105.912V64.8933H104.918V59.3301H108.313Z" fill="white"/>
<path d="M114.117 62.0673C114.117 64.123 112.7 65.0199 111.363 65.0199C109.866 65.0199 108.714 63.9099 108.714 62.1584C108.714 60.2958 109.926 59.2036 111.458 59.2036C113.042 59.2036 114.117 60.3646 114.117 62.0673ZM109.73 62.1251C109.73 63.3416 110.427 64.2629 111.409 64.2629C112.391 64.2629 113.089 63.3549 113.089 62.1006C113.089 61.1594 112.621 59.9628 111.431 59.9628C110.242 59.9628 109.73 61.0661 109.73 62.1251Z" fill="white"/>
<path d="M28.0517 74.4968H28.5351C29.3803 74.4968 29.9519 74.1039 29.9519 73.5867C29.9519 73.0694 29.5105 72.783 28.8793 72.783C28.407 72.7917 27.9454 72.9265 27.5419 73.1737L27.2903 72.5544C27.8455 72.2177 28.4827 72.0425 29.1309 72.0482C29.9762 72.0482 31.0047 72.4278 31.0047 73.5067C31.0047 74.1971 30.3757 74.6456 29.7577 74.7721V74.7943C30.5809 74.8631 31.2673 75.3693 31.2673 76.1862C31.2673 77.3916 30.0446 77.8401 28.8793 77.8401C28.254 77.8431 27.6377 77.6906 27.0851 77.3961L27.3477 76.719C27.7983 76.9614 28.3 77.0915 28.8109 77.0986C29.6452 77.0986 30.1704 76.6946 30.1704 76.144C30.1704 75.3959 29.3936 75.1895 28.5593 75.1895H28.0561L28.0517 74.4968Z" fill="white"/>
<path d="M36.8046 72.1614V76.9676L37.3762 76.9787L37.3188 79.4961H36.5309L36.4846 77.7201H32.6555L32.6113 79.4961H31.8212L31.7771 76.9787L32.245 76.9676C32.4823 76.6169 32.6674 76.2332 32.7945 75.8287C33.0132 75.1095 33.1211 74.3609 33.1145 73.6088V72.1592L36.8046 72.1614ZM34.0039 73.853C34.0071 74.5528 33.9113 75.2494 33.7192 75.922C33.6091 76.2809 33.4612 76.627 33.2778 76.9543H35.8181V72.9317H33.9995L34.0039 73.853Z" fill="white"/>
<path d="M43.5425 74.8986C43.5425 76.9543 42.1256 77.8511 40.7904 77.8511C39.2919 77.8511 38.142 76.7412 38.142 74.9896C38.142 73.1271 39.3537 72.0371 40.8853 72.0371C42.4611 72.0371 43.5425 73.1981 43.5425 74.8986ZM39.155 74.9563C39.155 76.1729 39.8524 77.0941 40.8345 77.0941C41.8166 77.0941 42.514 76.1862 42.514 74.9319C42.514 73.9907 42.0462 72.7941 40.8588 72.7941C39.6715 72.7941 39.1462 73.8974 39.1462 74.9563H39.155Z" fill="white"/>
<path d="M44.8027 73.9795C44.8027 73.2669 44.7806 72.6919 44.7563 72.1614H45.6612L45.7053 73.1159H45.7296C45.9288 72.7737 46.2169 72.4924 46.5629 72.3024C46.909 72.1123 47.2999 72.0206 47.6938 72.037C49.0313 72.037 50.0354 73.1736 50.0354 74.863C50.0354 76.861 48.826 77.8511 47.5217 77.8511C47.1873 77.8656 46.8549 77.7929 46.5568 77.6401C46.2586 77.4872 46.0048 77.2593 45.8201 76.9786H45.798V80H44.8027V73.9795ZM45.798 75.4602C45.8005 75.5996 45.8153 75.7385 45.8422 75.8753C45.925 76.2145 46.119 76.5157 46.3929 76.7304C46.6668 76.945 47.0045 77.0606 47.3518 77.0585C48.4133 77.0585 49.0313 76.1861 49.0313 74.9096C49.0313 73.7997 48.4486 72.8407 47.3849 72.8407C46.9644 72.8779 46.5717 73.0675 46.2798 73.3742C45.988 73.6808 45.8167 74.0837 45.798 74.5078V75.4602Z" fill="white"/>
<path d="M56.3098 74.8986C56.3098 76.9543 54.893 77.8511 53.5555 77.8511C52.0592 77.8511 50.9072 76.7412 50.9072 74.9896C50.9072 73.1271 52.1188 72.0371 53.6482 72.0371C55.2394 72.0371 56.3098 73.1981 56.3098 74.8986ZM51.9224 74.9563C51.9224 76.1729 52.6198 77.0941 53.6019 77.0941C54.584 77.0941 55.2814 76.1862 55.2814 74.9319C55.2814 73.9907 54.8135 72.7941 53.6239 72.7941C52.4344 72.7941 51.929 73.8974 51.929 74.9563H51.9224Z" fill="white"/>
<path d="M57.5546 72.2324C58.1391 72.1448 58.7293 72.1024 59.3202 72.1059C60.2449 72.1059 61.7766 72.2546 61.7766 73.4956C61.7766 74.186 61.2513 74.6056 60.6223 74.7476V74.7721C61.4323 74.8875 62.0282 75.347 62.0282 76.1506C62.0282 77.6114 60.1986 77.7934 59.1127 77.7934C58.497 77.7934 57.857 77.749 57.5679 77.7246L57.5546 72.2324ZM58.5036 77.0586C58.773 77.0928 59.0443 77.1084 59.3158 77.1052C59.9779 77.1052 60.9953 76.9432 60.9953 76.1395C60.9953 75.3359 60.1942 75.1628 59.2297 75.1628H58.4992L58.5036 77.0586ZM58.5036 74.4968H59.2584C60 74.4968 60.7658 74.2748 60.7658 73.6221C60.7658 73.0716 60.2869 72.8052 59.2805 72.8052C59.0209 72.8069 58.7616 72.8224 58.5036 72.8518V74.4968Z" fill="white"/>
<path d="M64.2615 72.1615V74.0484C64.5647 74.0038 64.871 73.9845 65.1774 73.9907C66.4221 73.9907 67.7353 74.3814 67.7353 75.8643C67.743 76.1076 67.6944 76.3494 67.5933 76.5706C67.4922 76.7917 67.3413 76.9862 67.1526 77.1386C66.5479 77.6558 65.5658 77.7824 64.7537 77.7824C64.2575 77.7832 63.7616 77.7565 63.2684 77.7024V72.1526L64.2615 72.1615ZM64.2615 77.0254C64.5083 77.0556 64.7567 77.0704 65.0053 77.0698C65.76 77.0698 66.7311 76.8167 66.7311 75.8865C66.7311 74.9209 65.7247 74.7144 64.9832 74.7144C64.7415 74.7146 64.5002 74.7339 64.2615 74.7721V77.0254Z" fill="white"/>
<path d="M73.0144 77.7245H72.0125V75.3913H71.2687C70.9322 75.371 70.6008 75.4824 70.344 75.7021C69.9335 76.0351 69.7834 76.7255 69.5672 77.2561C69.506 77.415 69.4322 77.5687 69.3465 77.7156H68.2739C68.4082 77.5173 68.5228 77.3061 68.6159 77.0852C68.8565 76.5435 68.9933 75.8198 69.4855 75.4069C69.6604 75.2428 69.8776 75.1313 70.1123 75.085V75.0495C69.3928 74.9696 68.6513 74.5211 68.6513 73.6709C68.6481 73.4209 68.7149 73.1751 68.8441 72.9615C68.9733 72.748 69.1596 72.5753 69.3818 72.4632C69.9583 72.1848 70.5945 72.0544 71.2334 72.0836C71.8288 72.0872 72.4235 72.1258 73.0144 72.1991V77.7245ZM72.0125 72.8295C71.7363 72.789 71.4574 72.7697 71.1782 72.7718C70.4919 72.7718 69.6819 72.9672 69.6819 73.7375C69.6819 74.4501 70.5647 74.7032 71.1562 74.7032H72.0125V72.8295Z" fill="white"/>
</svg>
