<svg width="150" height="80" viewBox="0 0 150 80" fill="none" xmlns="http://www.w3.org/2000/svg">
<path d="M20.5999 16.3387C20.4898 17.2927 20.2452 18.2263 19.8733 19.1114C19.69 19.4914 19.5689 19.8984 19.5145 20.3168C19.1889 22.7099 17.8089 24.4659 15.9704 25.7535C15.6936 25.9488 15.4078 26.1309 15.1132 26.304L15.0689 26.3284L14.9449 26.3995H14.9271C14.5439 26.6215 14.1452 26.8191 13.7377 27.0055C13.3301 27.192 12.9403 27.3541 12.5327 27.5072C12.1251 27.6604 11.6733 27.8136 11.2413 27.9512C8.4953 28.7587 5.65798 29.213 2.79761 29.3032C6.37711 28.6683 8.86238 27.4229 10.5104 26.2485C12.5039 24.8189 13.2814 23.498 13.2814 23.498C13.339 23.447 13.3966 23.3959 13.4497 23.3448C16.8343 20.2258 17.9773 16.7938 18.2098 14.363H18.2497C18.3528 13.612 18.4178 12.8562 18.4446 12.0986C19.2777 13.4505 19.9985 14.8686 20.5999 16.3387Z" fill="#380D0D"/>
<path d="M18.2098 14.363C17.9728 16.8338 16.8055 20.3369 13.2902 23.4958C4.62499 29.7272 0 27.1521 0 27.1521C1.70336 25.8623 3.13206 24.2662 3.95384 22.3348C4.20857 21.7554 4.46551 21.1938 4.73796 20.6765C7.36278 15.6972 12.8228 13.5416 18.2098 14.363Z" fill="#380D0D"/>
<path d="M20.8413 7.95849C20.8413 7.95849 21.1226 12.7425 20.5998 16.3388C19.9982 14.8709 19.2773 13.455 18.4446 12.1053C18.5332 10.1296 18.4645 8.17161 18.4645 8.17161C18.2847 6.76667 17.7204 5.43901 16.8343 4.33555C16.4712 3.89032 16.2704 3.33436 16.265 2.75939V2.46636C16.2647 2.1422 16.3283 1.82117 16.452 1.52167C16.5757 1.22216 16.7571 0.950054 16.9859 0.720945C17.2147 0.491835 17.4864 0.310222 17.7854 0.186511C18.0843 0.062799 18.4047 -0.000580194 18.7281 4.00207e-06H19.3572C19.6805 -0.000287993 20.0006 0.0633068 20.2993 0.187149C20.598 0.310992 20.8694 0.492651 21.098 0.721731C21.3266 0.950811 21.5078 1.22282 21.6314 1.52218C21.7549 1.82154 21.8184 2.14239 21.8181 2.46636V2.59067C21.8168 3.93872 22.1389 5.26732 22.7573 6.46447C24.0974 9.0618 26.4475 13.8036 26.8773 15.9192C26.8773 15.9192 22.6111 9.22608 20.8413 7.95849Z" fill="#380D0D"/>
<path d="M14.9315 46.945H12.5327V27.5272C12.9424 27.374 13.3456 27.2075 13.7376 27.0255C14.1297 26.8435 14.5461 26.6392 14.9315 26.4172C14.555 26.6392 13.7376 27.263 13.7376 28.1932V45.1535C13.7355 45.2964 13.7768 45.4366 13.8559 45.5555C13.935 45.6744 14.0482 45.7665 14.1806 45.8195C14.4107 45.9001 14.6084 46.0534 14.7438 46.2565C14.8793 46.4595 14.9452 46.7012 14.9315 46.945Z" fill="#1B1818"/>
<path d="M16.646 15.3442C15.6094 18.5587 12.2868 25.556 2.84412 26.3618C4.03588 24.9725 5.00711 23.4076 5.72366 21.7221C8.02508 16.3499 13.6646 15.4353 16.646 15.3442Z" fill="#F2BD91"/>
<path d="M33.086 28.5706L30.3682 36.3848H26.8773L35.7618 11.5437H39.8374L48.7618 36.3848H45.1535L42.3604 28.5706H33.086ZM41.6604 26.0643L39.0998 18.9139C38.5173 17.2911 38.1296 15.806 37.742 14.3786H37.6556C37.268 15.8526 36.8405 17.3644 36.3266 18.8762L33.766 26.0643H41.6604Z" fill="#380D0D"/>
<path d="M49.887 11.8368C52.0314 11.5055 54.1986 11.3452 56.3682 11.3573C59.7041 11.3573 62.1495 12.0944 63.7022 13.4219C65.1375 14.6007 65.9903 16.4077 65.9903 18.6188C65.9903 20.8676 65.2926 22.6369 63.9724 23.9266C62.1871 25.7337 59.2788 26.655 55.9784 26.655C55.0677 26.6824 54.1569 26.608 53.2627 26.433V36.385H49.887V11.8368ZM53.2627 23.8245C54.1804 24.0202 55.118 24.1066 56.0559 24.082C60.1316 24.082 62.6146 22.204 62.6146 18.7742C62.6146 15.4931 60.1781 13.908 56.4457 13.908C54.9705 13.908 53.8453 14.019 53.2627 14.1678V23.8245Z" fill="#380D0D"/>
<path d="M72.7817 14.2698H64.8253V11.5437H84.1891V14.2698H76.1972V36.3848H72.7817V14.2698Z" fill="#380D0D"/>
<path d="M89.3501 25.2163V27.6116H79.7657V25.2163H89.3501Z" fill="#380D0D"/>
<path d="M92.5708 22.3793H104.753C104.328 17.5864 101.185 13.7903 95.7914 13.7903C93.696 13.7903 91.873 14.3431 90.2029 15.0424L89.3877 12.5738C91.2506 11.799 93.5011 11.1353 95.9863 11.1353C104.211 11.1353 108.402 16.7761 108.402 24.0109C108.402 32.1581 102.738 36.8022 95.7914 36.8022C93.191 36.8022 90.8253 36.3227 88.9625 35.5124L89.7089 32.9573C91.4948 33.6957 93.4055 34.0838 95.3373 34.1005C101.119 34.1005 104.572 30.118 104.804 24.9588H92.5708V22.3793Z" fill="#380D0D"/>
<path d="M113.41 11.5437V22.5657H114.458L123.42 11.5437H127.493L117.598 22.932C121.907 23.4848 123.579 25.9911 124.932 29.3454C125.903 31.8872 126.64 34.1738 127.812 36.3848H124.157C123.225 34.6888 122.487 32.4777 121.789 30.5242C120.587 27.2431 118.91 24.9943 114.495 24.9943H113.41V36.3848H110.07V11.5437H113.41Z" fill="#380D0D"/>
<path d="M150 23.7046C150 32.258 144.529 36.7911 137.855 36.7911C130.946 36.7911 126.095 31.703 126.095 24.1841C126.095 16.2966 131.256 11.1353 138.243 11.1353C145.382 11.1353 150 16.3321 150 23.7046ZM129.706 24.1108C129.706 29.4187 132.732 34.1738 138.048 34.1738C143.404 34.1738 146.429 29.4919 146.429 23.8533C146.429 18.9139 143.714 13.7526 138.088 13.7526C132.499 13.7637 129.706 18.6475 129.706 24.1108Z" fill="#380D0D"/>
<path d="M27.7655 44.3167V47.7531H28.0734L30.7314 44.3167H31.9364L29.0125 47.8686C30.284 48.0395 30.7846 48.8209 31.1788 49.8665C31.4194 50.614 31.7026 51.3471 32.0272 52.062H30.9507C30.6731 51.471 30.4391 50.8604 30.2507 50.235C29.8941 49.2116 29.4024 48.5101 28.0955 48.5101H27.7743V52.062H26.7864V44.3167H27.7655Z" fill="#380D0D"/>
<path d="M37.4341 46.501V52.0619H36.4373V47.2846H34.5324V48.732C34.5324 50.286 34.384 51.3404 33.6619 51.8133C33.3475 52.0607 32.9532 52.1832 32.5544 52.1574L32.4503 51.3649C32.6491 51.336 32.8382 51.2599 33.0018 51.1429C33.5179 50.7633 33.5755 49.9818 33.5755 48.7409V46.501H37.4341Z" fill="#380D0D"/>
<path d="M40.0235 46.5011V48.8387C40.0235 49.7267 40.0124 50.275 39.9659 51.0587L40.0013 51.0698C40.3336 50.3927 40.5285 50.002 40.8874 49.3582L42.6195 46.4856H43.8001V52.0466H42.8366V49.7067C42.8366 48.7988 42.8587 48.3282 42.9053 47.4313H42.8698C42.5154 48.1439 42.274 48.5923 41.9528 49.154C41.4256 50.0175 40.8187 51.0853 40.2206 52.0621H39.0732V46.5011H40.0235Z" fill="#380D0D"/>
<path d="M46.4227 46.501V48.7409H49.0608V46.501H50.0598V52.0619H49.0631V49.5445H46.4227V52.0619H45.426V46.501H46.4227Z" fill="#380D0D"/>
<path d="M52.6381 46.5011V48.8387C52.6381 49.7267 52.6381 50.275 52.5827 51.0587L52.616 51.0698C52.9482 50.3927 53.1431 50.002 53.502 49.3582L55.2341 46.4856H56.4147V52.0466H55.4512V49.7067C55.4512 48.7988 55.4734 48.3282 55.5199 47.4313H55.4867C55.13 48.1439 54.8886 48.5923 54.5674 49.154C54.0402 50.0175 53.4333 51.0853 52.8375 52.0621H51.679V46.5011H52.6381Z" fill="#380D0D"/>
<path d="M59.0617 46.501V48.9141H59.3032L61.3897 46.501H62.6169L60.1958 49.0162C61.0818 49.1094 61.6312 49.7066 62.0653 50.7055C62.2365 51.1696 62.4362 51.6226 62.6634 52.0619H61.6068C61.4033 51.6982 61.2307 51.318 61.0907 50.9253C60.7119 50.0373 60.2047 49.6156 59.2566 49.6156H59.0617V52.0575H58.0627V46.501H59.0617Z" fill="#380D0D"/>
<path d="M66.7457 52.0621L66.6637 51.3606H66.6305C66.4336 51.6237 66.177 51.836 65.882 51.98C65.5869 52.124 65.2619 52.1955 64.9338 52.1886C63.8086 52.1886 63.2349 51.3961 63.2349 50.5925C63.2349 49.2472 64.4288 48.5102 66.5729 48.5235V48.408C66.5729 47.9485 66.4467 47.1205 65.3126 47.1205C64.8018 47.1228 64.3015 47.2656 63.8661 47.5334L63.6446 46.8674C64.1948 46.5366 64.8261 46.3659 65.4676 46.3746C67.1643 46.3746 67.5763 47.5334 67.5763 48.65V50.7301C67.5695 51.1759 67.6006 51.6216 67.6694 52.0621H66.7457ZM66.5951 49.2228C65.4876 49.2006 64.2449 49.3959 64.2449 50.477C64.2332 50.6058 64.2497 50.7356 64.2933 50.8573C64.3369 50.9791 64.4065 51.0898 64.4972 51.1818C64.5879 51.2737 64.6975 51.3447 64.8185 51.3898C64.9394 51.4349 65.0688 51.4529 65.1974 51.4427C65.4907 51.4506 65.7789 51.3644 66.0199 51.1967C66.261 51.029 66.4423 50.7885 66.5375 50.5103C66.5739 50.4069 66.5934 50.2982 66.5951 50.1884V49.2228Z" fill="#380D0D"/>
<path d="M26.7443 61.1461C26.7443 60.4335 26.72 59.8607 26.6978 59.3302H27.6038L27.6503 60.2847H27.6724C27.873 59.9424 28.1625 59.661 28.51 59.4706C28.8576 59.2802 29.2502 59.1879 29.646 59.2036C30.975 59.2036 31.9962 60.3424 31.9962 62.0318C31.9962 64.0298 30.7801 65.0199 29.4733 65.0199C29.1377 65.0344 28.8041 64.9617 28.5048 64.8089C28.2056 64.656 27.9509 64.4281 27.7655 64.1474H27.7411V67.1688H26.7443V61.1461ZM27.7411 62.629C27.7443 62.7685 27.7598 62.9074 27.7876 63.0441C27.8707 63.3829 28.065 63.6838 28.3395 63.8985C28.6139 64.1131 28.9524 64.2289 29.3005 64.2273C30.3681 64.2273 30.9861 63.3549 30.9861 62.0784C30.9861 60.9685 30.4014 60.0095 29.3359 60.0095C28.9791 60.0195 28.6358 60.1478 28.3596 60.3744C28.0834 60.601 27.89 60.913 27.8098 61.2615C27.7697 61.3965 27.7467 61.5359 27.7411 61.6766V62.629Z" fill="#380D0D"/>
<path d="M33.8302 62.296C33.8546 63.6635 34.7162 64.2273 35.7352 64.2273C36.2621 64.2435 36.7864 64.1458 37.2724 63.941L37.4429 64.6647C36.8588 64.9078 36.2301 65.025 35.5978 65.0087C33.8878 65.0087 32.8689 63.8832 32.8689 62.205C32.8689 60.5267 33.8546 59.2036 35.4716 59.2036C37.2835 59.2036 37.7641 60.802 37.7641 61.8254C37.7625 61.9828 37.7514 62.1399 37.7309 62.296H33.8302ZM36.7895 61.5723C36.7895 60.9285 36.5259 59.9295 35.3918 59.9295C34.3707 59.9295 33.9233 60.8708 33.8413 61.5723H36.7895Z" fill="#380D0D"/>
<path d="M43.5786 59.3301V64.8933H42.5708V60.1359H39.9902V64.8933H38.9846V59.3301H43.5786Z" fill="#380D0D"/>
<path d="M45.22 61.1461C45.22 60.4335 45.1956 59.8607 45.1735 59.3302H46.0728L46.1193 60.2847H46.1414C46.3414 59.9424 46.6305 59.661 46.9777 59.4706C47.325 59.2802 47.7173 59.1879 48.1128 59.2036C49.4551 59.2036 50.4652 60.3425 50.4652 62.0318C50.4652 64.0298 49.2491 65.0199 47.9423 65.0199C47.6064 65.0342 47.2726 64.9614 46.973 64.8086C46.6735 64.6557 46.4183 64.428 46.2322 64.1474H46.2101V67.1688H45.2133L45.22 61.1461ZM46.2167 62.629C46.2188 62.7686 46.2344 62.9076 46.2633 63.0441C46.3463 63.3829 46.5407 63.6839 46.8151 63.8985C47.0895 64.1131 47.428 64.229 47.7761 64.2274C48.8438 64.2274 49.4618 63.3549 49.4618 62.0785C49.4618 60.9685 48.877 60.0095 47.8116 60.0095C47.4551 60.0219 47.1129 60.1524 46.8383 60.3805C46.5638 60.6087 46.3724 60.9216 46.2943 61.2704C46.2542 61.4054 46.2312 61.5448 46.2256 61.6855L46.2167 62.629Z" fill="#380D0D"/>
<path d="M56.767 62.0673C56.767 64.123 55.3449 65.0199 54.0026 65.0199C52.5008 65.0199 51.3445 63.9099 51.3445 62.1584C51.3445 60.2958 52.5606 59.2036 54.0978 59.2036C55.6905 59.2036 56.767 60.3646 56.767 62.0673ZM52.3635 62.1251C52.3635 63.3416 53.0634 64.2629 54.0491 64.2629C55.0348 64.2629 55.7348 63.3549 55.7348 62.1006C55.7348 61.1594 55.2652 59.9628 54.0735 59.9628C52.8818 59.9628 52.3635 61.0661 52.3635 62.1251Z" fill="#380D0D"/>
<path d="M62.2602 59.3301V64.1362H62.8339L62.7763 66.6537H61.9855L61.939 64.8777H58.0982L58.0516 66.6537H57.2609L57.2144 64.1562H57.6862C57.9228 63.805 58.1078 63.4214 58.2355 63.0174C58.456 62.2984 58.5643 61.5496 58.5567 60.7975V59.3478L62.2602 59.3301ZM59.4515 61.0217C59.4538 61.7206 59.3576 62.4164 59.1658 63.0884C59.0547 63.4479 58.9063 63.7946 58.7228 64.1229H61.2789V60.1004H59.4515V61.0217Z" fill="#380D0D"/>
<path d="M64.3711 59.3301L65.5872 62.6178C65.7134 62.9863 65.8508 63.4236 65.9416 63.7566H65.966C66.0678 63.4236 66.1875 62.9974 66.3204 62.5956L67.4279 59.3301H68.4955L66.9804 63.2971C66.2583 65.204 65.7666 66.183 65.0777 66.778C64.7293 67.1011 64.3023 67.3269 63.8395 67.4329L63.5715 66.5826C63.8956 66.4768 64.1964 66.3095 64.4575 66.0898C64.8229 65.7841 65.1132 65.3982 65.3059 64.9621C65.3459 64.8873 65.3729 64.8062 65.3856 64.7223C65.3767 64.6305 65.3535 64.5406 65.317 64.4559L63.2636 59.3301H64.3711Z" fill="#380D0D"/>
<path d="M70.4049 59.3301V61.7454H70.6441L72.7307 59.3301H73.9578L71.5456 61.8475C72.4316 61.9407 72.9788 62.5379 73.4151 63.5369C73.5845 64.0013 73.7836 64.4544 74.011 64.8933H72.9566C72.7501 64.5298 72.5745 64.1496 72.4316 63.7566C72.0529 62.8687 71.5456 62.4469 70.5976 62.4469H70.4027V64.8888H69.4037V59.3301H70.4049Z" fill="#380D0D"/>
<path d="M78.8552 59.3301V60.1359H77.1231V64.8933H76.1263V60.1359H74.3942V59.3301H78.8552Z" fill="#380D0D"/>
<path d="M80.6561 59.3302V61.6766C80.6561 62.5646 80.645 63.1129 80.5985 63.8966L80.6339 63.9077C80.9662 63.2306 81.1611 62.8399 81.52 62.1961L83.2521 59.3213H84.4327V64.8845H83.4692V62.538C83.4692 61.63 83.4913 61.1594 83.5379 60.2625H83.5068C83.1524 60.9751 82.911 61.4236 82.5898 61.9852C82.0626 62.8488 81.4557 63.9166 80.8577 64.8933H79.7014V59.3302H80.6561Z" fill="#380D0D"/>
<path d="M86.0586 59.4011C86.6452 59.3134 87.2376 59.2711 87.8306 59.2746C88.7587 59.2746 90.296 59.4233 90.296 60.6643C90.296 61.3547 89.7688 61.7743 89.1375 61.9164V61.9363C89.9526 62.0495 90.5485 62.5113 90.5485 63.3149C90.5485 64.7756 88.7144 64.9577 87.6246 64.9577C87.0044 64.9577 86.3621 64.9133 86.0741 64.8889L86.0586 59.4011ZM87.0111 64.2273C87.2806 64.2616 87.5523 64.2771 87.824 64.2739C88.5018 64.2739 89.5096 64.1119 89.5096 63.3083C89.5096 62.5046 88.7078 62.3315 87.7376 62.3315H87.0044L87.0111 64.2273ZM87.0221 61.6633H87.7775C88.5239 61.6633 89.2925 61.4413 89.2925 60.7908C89.2925 60.2381 88.8097 59.9739 87.8018 59.9739C87.5413 59.9755 87.281 59.9911 87.0221 60.0205V61.6633Z" fill="#380D0D"/>
<path d="M92.79 59.3301V61.5722H95.4282V59.3301H96.4249V64.8932H95.4282V62.3803H92.79V64.8977H91.7933V59.3301H92.79Z" fill="#380D0D"/>
<path d="M103.099 62.0673C103.099 64.123 101.677 65.0199 100.337 65.0199C98.8349 65.0199 97.6786 63.9099 97.6786 62.1584C97.6786 60.2958 98.8925 59.2036 100.43 59.2036C102.022 59.2036 103.099 60.3646 103.099 62.0673ZM98.6953 62.1251C98.6953 63.3416 99.3953 64.2629 100.381 64.2629C101.367 64.2629 102.069 63.3549 102.069 62.1006C102.069 61.1594 101.597 59.9628 100.405 59.9628C99.2137 59.9628 98.6953 61.0661 98.6953 62.1251Z" fill="#380D0D"/>
<path d="M107.757 59.3301V60.147H105.347V64.8933H104.35V59.3301H107.757Z" fill="#380D0D"/>
<path d="M113.583 62.0673C113.583 64.123 112.161 65.0199 110.818 65.0199C109.316 65.0199 108.16 63.9099 108.16 62.1584C108.16 60.2958 109.376 59.2036 110.913 59.2036C112.504 59.2036 113.583 60.3646 113.583 62.0673ZM109.179 62.1251C109.179 63.3416 109.879 64.2629 110.865 64.2629C111.85 64.2629 112.55 63.3549 112.55 62.1006C112.55 61.1594 112.081 59.9628 110.887 59.9628C109.693 59.9628 109.179 61.0661 109.179 62.1251Z" fill="#380D0D"/>
<path d="M27.2028 74.4968H27.6879C28.5363 74.4968 29.11 74.1039 29.11 73.5867C29.11 73.0694 28.667 72.783 28.0335 72.783C27.5594 72.7917 27.0961 72.9265 26.6912 73.1737L26.4387 72.5544C26.9959 72.2177 27.6354 72.0425 28.286 72.0482C29.1344 72.0482 30.1666 72.4278 30.1666 73.5067C30.1666 74.1971 29.5353 74.6456 28.9151 74.7721V74.7943C29.7413 74.8631 30.4302 75.3693 30.4302 76.1862C30.4302 77.3916 29.203 77.8401 28.0335 77.8401C27.4059 77.8431 26.7873 77.6906 26.2327 77.3961L26.4963 76.719C26.9485 76.9614 27.4521 77.0915 27.9648 77.0986C28.8021 77.0986 29.3293 76.6946 29.3293 76.144C29.3293 75.3959 28.5496 75.1895 27.7123 75.1895H27.2073L27.2028 74.4968Z" fill="#380D0D"/>
<path d="M35.9877 72.1614V76.9676L36.5614 76.9787L36.5038 79.4961H35.713L35.6665 77.7201H31.8234L31.7791 79.4961H30.9861L30.9418 76.9787L31.4114 76.9676C31.6496 76.6169 31.8354 76.2332 31.963 75.8287C32.1824 75.1095 32.2907 74.3609 32.2841 73.6088V72.1592L35.9877 72.1614ZM33.1768 73.853C33.18 74.5528 33.0838 75.2494 32.8911 75.922C32.7806 76.2809 32.632 76.627 32.4481 76.9543H34.9976V72.9317H33.1724L33.1768 73.853Z" fill="#380D0D"/>
<path d="M42.7502 74.8986C42.7502 76.9543 41.3282 77.8511 39.9881 77.8511C38.484 77.8511 37.33 76.7412 37.33 74.9896C37.33 73.1271 38.5461 72.0371 40.0833 72.0371C41.6648 72.0371 42.7502 73.1981 42.7502 74.8986ZM38.3467 74.9563C38.3467 76.1729 39.0467 77.0941 40.0324 77.0941C41.018 77.0941 41.718 76.1862 41.718 74.9319C41.718 73.9907 41.2484 72.7941 40.0567 72.7941C38.865 72.7941 38.3379 73.8974 38.3379 74.9563H38.3467Z" fill="#380D0D"/>
<path d="M44.015 73.9795C44.015 73.2669 43.9928 72.6919 43.9684 72.1614H44.8766L44.9209 73.1159H44.9453C45.1452 72.7737 45.4343 72.4924 45.7816 72.3024C46.1289 72.1123 46.5213 72.0206 46.9167 72.037C48.259 72.037 49.2668 73.1736 49.2668 74.863C49.2668 76.861 48.053 77.8511 46.7439 77.8511C46.4083 77.8656 46.0747 77.7929 45.7754 77.6401C45.4762 77.4872 45.2215 77.2593 45.0361 76.9786H45.0139V80H44.015V73.9795ZM45.0139 75.4602C45.0164 75.5996 45.0312 75.7385 45.0582 75.8753C45.1414 76.2145 45.3361 76.5157 45.611 76.7304C45.8858 76.945 46.2249 77.0606 46.5733 77.0585C47.6388 77.0585 48.259 76.1861 48.259 74.9096C48.259 73.7997 47.6742 72.8407 46.6066 72.8407C46.1846 72.8779 45.7905 73.0675 45.4975 73.3742C45.2046 73.6808 45.0327 74.0837 45.0139 74.5078V75.4602Z" fill="#380D0D"/>
<path d="M55.5642 74.8986C55.5642 76.9543 54.1421 77.8511 52.7998 77.8511C51.298 77.8511 50.1418 76.7412 50.1418 74.9896C50.1418 73.1271 51.3578 72.0371 52.8929 72.0371C54.4899 72.0371 55.5642 73.1981 55.5642 74.8986ZM51.1607 74.9563C51.1607 76.1729 51.8607 77.0941 52.8463 77.0941C53.832 77.0941 54.532 76.1862 54.532 74.9319C54.532 73.9907 54.0624 72.7941 52.8685 72.7941C51.6746 72.7941 51.1673 73.8974 51.1673 74.9563H51.1607Z" fill="#380D0D"/>
<path d="M56.8135 72.2324C57.4 72.1448 57.9925 72.1024 58.5855 72.1059C59.5136 72.1059 61.0508 72.2546 61.0508 73.4956C61.0508 74.186 60.5237 74.6056 59.8924 74.7476V74.7721C60.7053 74.8875 61.3034 75.347 61.3034 76.1506C61.3034 77.6114 59.4671 77.7934 58.3773 77.7934C57.7593 77.7934 57.1169 77.749 56.8268 77.7246L56.8135 72.2324ZM57.7659 77.0586C58.0363 77.0928 58.3086 77.1084 58.5811 77.1052C59.2456 77.1052 60.2667 76.9432 60.2667 76.1395C60.2667 75.3359 59.4627 75.1628 58.4947 75.1628H57.7615L57.7659 77.0586ZM57.7659 74.4968H58.5235C59.2677 74.4968 60.0364 74.2748 60.0364 73.6221C60.0364 73.0716 59.5557 72.8052 58.5456 72.8052C58.2851 72.8069 58.0248 72.8224 57.7659 72.8518V74.4968Z" fill="#380D0D"/>
<path d="M63.5449 72.1615V74.0484C63.8492 74.0038 64.1567 73.9845 64.4642 73.9907C65.7134 73.9907 67.0314 74.3814 67.0314 75.8643C67.0392 76.1076 66.9904 76.3494 66.8889 76.5706C66.7874 76.7917 66.636 76.9862 66.4466 77.1386C65.8397 77.6558 64.854 77.7824 64.0389 77.7824C63.5409 77.7832 63.0432 77.7565 62.5482 77.7024V72.1526L63.5449 72.1615ZM63.5449 77.0254C63.7926 77.0556 64.0419 77.0704 64.2914 77.0698C65.0489 77.0698 66.0235 76.8167 66.0235 75.8865C66.0235 74.9209 65.0135 74.7144 64.2692 74.7144C64.0267 74.7146 63.7845 74.7339 63.5449 74.7721V77.0254Z" fill="#380D0D"/>
<path d="M72.3298 77.7245H71.3242V75.3913H70.5777C70.2399 75.371 69.9074 75.4824 69.6496 75.7021C69.2376 76.0351 69.087 76.7255 68.8699 77.2561C68.8085 77.415 68.7345 77.5687 68.6484 77.7156H67.5719C67.7067 77.5173 67.8217 77.3061 67.9152 77.0852C68.1567 76.5435 68.294 75.8198 68.788 75.4069C68.9635 75.2428 69.1814 75.1313 69.417 75.085V75.0495C68.6949 74.9696 67.9507 74.5211 67.9507 73.6709C67.9475 73.4209 68.0146 73.1751 68.1442 72.9615C68.2739 72.748 68.4609 72.5753 68.6838 72.4632C69.2625 72.1848 69.901 72.0544 70.5423 72.0836C71.1398 72.0872 71.7367 72.1258 72.3298 72.1991V77.7245ZM71.3242 72.8295C71.0469 72.789 70.767 72.7697 70.4869 72.7718C69.798 72.7718 68.9851 72.9672 68.9851 73.7375C68.9851 74.4501 69.8711 74.7032 70.4647 74.7032H71.3242V72.8295Z" fill="#380D0D"/>
</svg>
