<svg width="44" height="38" viewBox="0 0 44 38" fill="none" xmlns="http://www.w3.org/2000/svg">
<path d="M34.9707 -7.73949e-07C37.7709 -5.28251e-07 39.9644 1.08706 41.5512 3.26119C43.0447 5.43532 43.7914 8.60198 43.7914 12.7612C43.7914 18.4328 42.5313 23.3483 40.0111 27.5075C37.4909 31.6667 33.8039 35.1642 28.9502 38L25.5899 32.4701C29.1369 30.107 31.7971 27.5547 33.5706 24.8134C35.344 22.1667 36.2308 18.8582 36.2308 14.8881C35.9508 14.9826 35.5307 15.0299 34.9707 15.0299C33.1039 15.0299 31.4237 14.4154 29.9303 13.1866C28.3435 11.9577 27.5501 10.1617 27.5501 7.7985C27.5501 5.34079 28.2501 3.40298 29.6502 1.98507C31.0504 0.661689 32.8238 -9.62317e-07 34.9707 -7.73949e-07ZM10.3287 -2.93609e-06C13.1289 -2.69039e-06 15.3224 1.08706 16.9092 3.26119C18.4027 5.43532 19.1494 8.60198 19.1494 12.7612C19.1494 18.4328 17.8893 23.3483 15.3691 27.5075C12.8489 31.6667 9.16192 35.1642 4.30819 38L0.947922 32.4701C4.49487 30.107 7.15509 27.5547 8.92857 24.8134C10.702 22.1667 11.5888 18.8582 11.5888 14.8881C11.3088 14.9826 10.8887 15.0298 10.3287 15.0298C8.46187 15.0298 6.78173 14.4154 5.28828 13.1866C3.70148 11.9577 2.90808 10.1617 2.90808 7.7985C2.90808 5.34079 3.60815 3.40298 5.00825 1.98507C6.40837 0.661686 8.18185 -3.12446e-06 10.3287 -2.93609e-06Z" fill="#FF7944"/>
</svg>
