<svg width="136" height="21" viewBox="0 0 136 21" fill="none" xmlns="http://www.w3.org/2000/svg">
<path d="M135.361 7.99254C135.212 7.6791 134.913 7.36567 134.614 7.36567L128.486 6.42537L125.796 0.626866C125.646 0.156716 125.198 0 124.899 0C124.6 0 124.152 0.156716 124.002 0.626866L121.312 6.42537L115.185 7.20896C114.886 7.36567 114.587 7.52239 114.437 7.99254C114.437 8.30597 114.437 8.77612 114.736 8.93284L119.071 13.4776L118.024 19.7463C118.024 20.0597 118.174 20.5299 118.473 20.6866C118.622 20.8433 118.772 20.8433 119.071 20.8433C119.22 20.8433 119.369 20.8433 119.519 20.6866L124.899 17.8657L130.28 20.8433C130.429 20.8433 130.578 21 130.728 21C131.326 21 131.625 20.5299 131.625 20.0597V19.903L130.578 13.6343L135.062 8.93284C135.361 8.77612 135.361 8.30597 135.361 7.99254Z" fill="black" fill-opacity="0.15"/>
<path d="M106.965 7.99254C106.815 7.6791 106.516 7.36567 106.217 7.36567L100.09 6.42537L97.3997 0.626866C97.2502 0.156716 96.8019 0 96.503 0C96.2041 0 95.7557 0.156716 95.6063 0.626866L92.9161 6.42537L86.7885 7.20896C86.4896 7.36567 86.1907 7.52239 86.0412 7.99254C86.0412 8.30597 86.0412 8.77612 86.3401 8.93284L90.6743 13.4776L89.6281 19.7463C89.6281 20.0597 89.7775 20.5299 90.0765 20.6866C90.2259 20.8433 90.3754 20.8433 90.6743 20.8433C90.8237 20.8433 90.9732 20.8433 91.1226 20.6866L96.503 17.8657L101.883 20.8433C102.033 20.8433 102.182 21 102.332 21C102.929 21 103.228 20.5299 103.228 20.0597V19.903L102.182 13.6343L106.666 8.93284C106.965 8.77612 106.965 8.30597 106.965 7.99254Z" fill="#FBC917"/>
<path d="M78.5685 7.99254C78.4191 7.6791 78.1201 7.36567 77.8212 7.36567L71.6936 6.42537L69.0035 0.626866C68.854 0.156716 68.4056 0 68.1067 0C67.8078 0 67.3595 0.156716 67.21 0.626866L64.5198 6.42537L58.3922 7.20896C58.0933 7.36567 57.7944 7.52239 57.645 7.99254C57.645 8.30597 57.645 8.77612 57.9439 8.93284L62.278 13.4776L61.2319 19.7463C61.2319 20.0597 61.3813 20.5299 61.6802 20.6866C61.8297 20.8433 61.9791 20.8433 62.278 20.8433C62.4275 20.8433 62.5769 20.8433 62.7264 20.6866L68.1067 17.8657L73.4871 20.8433C73.6365 20.8433 73.786 21 73.9354 21C74.5333 21 74.8322 20.5299 74.8322 20.0597V19.903L73.786 13.6343L78.2696 8.93284C78.5685 8.77612 78.5685 8.30597 78.5685 7.99254Z" fill="#FBC917"/>
<path d="M50.1722 7.99254C50.0228 7.6791 49.7239 7.36567 49.425 7.36567L43.2974 6.42537L40.6072 0.626866C40.4577 0.156716 40.0094 0 39.7105 0C39.4116 0 38.9632 0.156716 38.8137 0.626866L36.1236 6.42537L29.996 7.20896C29.697 7.36567 29.3981 7.52239 29.2487 7.99254C29.2487 8.30597 29.2487 8.77612 29.5476 8.93284L33.8818 13.4776L32.8356 19.7463C32.8356 20.0597 32.985 20.5299 33.2839 20.6866C33.4334 20.8433 33.5829 20.8433 33.8818 20.8433C34.0312 20.8433 34.1807 20.8433 34.3301 20.6866L39.7105 17.8657L45.0908 20.8433C45.2403 20.8433 45.3897 21 45.5392 21C46.137 21 46.4359 20.5299 46.4359 20.0597V19.903L45.3897 13.6343L49.8733 8.93284C50.1722 8.77612 50.1722 8.30597 50.1722 7.99254Z" fill="#FBC917"/>
<path d="M21.776 7.99254C21.6265 7.6791 21.3276 7.36567 21.0287 7.36567L14.9011 6.42537L12.2109 0.626866C12.0615 0.156716 11.6131 0 11.3142 0C11.0153 0 10.567 0.156716 10.4175 0.626866L7.72733 6.42537L1.59972 7.20896C1.30081 7.36567 1.0019 7.52239 0.852448 7.99254C0.852448 8.30597 0.852448 8.77612 1.15136 8.93284L5.48552 13.4776L4.43934 19.7463C4.43934 20.0597 4.5888 20.5299 4.8877 20.6866C5.03716 20.8433 5.18661 20.8433 5.48552 20.8433C5.63497 20.8433 5.78443 20.8433 5.93388 20.6866L11.3142 17.8657L16.6946 20.8433C16.844 20.8433 16.9935 21 17.1429 21C17.7407 21 18.0396 20.5299 18.0396 20.0597V19.903L16.9935 13.6343L21.4771 8.93284C21.776 8.77612 21.776 8.30597 21.776 7.99254Z" fill="#FBC917"/>
</svg>
