<svg width="22" height="21" viewBox="0 0 22 21" fill="none" xmlns="http://www.w3.org/2000/svg">
<path d="M21.5439 7.99254C21.3944 7.6791 21.0955 7.36567 20.7966 7.36567L14.669 6.42537L11.9788 0.626866C11.8293 0.156716 11.381 0 11.0821 0C10.7832 0 10.3348 0.156716 10.1854 0.626866L7.49518 6.42537L1.36757 7.20896C1.06866 7.36567 0.769754 7.52239 0.6203 7.99254C0.6203 8.30597 0.6203 8.77612 0.919208 8.93284L5.25337 13.4776L4.2072 19.7463C4.2072 20.0597 4.35665 20.5299 4.65556 20.6866C4.80501 20.8433 4.95446 20.8433 5.25337 20.8433C5.40283 20.8433 5.55228 20.8433 5.70173 20.6866L11.0821 17.8657L16.4624 20.8433C16.6119 20.8433 16.7613 21 16.9108 21C17.5086 21 17.8075 20.5299 17.8075 20.0597V19.903L16.7613 13.6343L21.2449 8.93284C21.5439 8.77612 21.5439 8.30597 21.5439 7.99254Z" fill="#FBC917"/>
</svg>
