<svg width="135" height="21" viewBox="0 0 135 21" fill="none" xmlns="http://www.w3.org/2000/svg">
<path d="M134.617 7.99254C134.467 7.6791 134.169 7.36567 133.87 7.36567L127.742 6.42537L125.052 0.626866C124.902 0.156716 124.454 0 124.155 0C123.856 0 123.408 0.156716 123.258 0.626866L120.568 6.42537L114.441 7.20896C114.142 7.36567 113.843 7.52239 113.693 7.99254C113.693 8.30597 113.693 8.77612 113.992 8.93284L118.326 13.4776L117.28 19.7463C117.28 20.0597 117.43 20.5299 117.729 20.6866C117.878 20.8433 118.028 20.8433 118.326 20.8433C118.476 20.8433 118.625 20.8433 118.775 20.6866L124.155 17.8657L129.536 20.8433C129.685 20.8433 129.834 21 129.984 21C130.582 21 130.881 20.5299 130.881 20.0597V19.903L129.834 13.6343L134.318 8.93284C134.617 8.77612 134.617 8.30597 134.617 7.99254Z" fill="black" fill-opacity="0.15"/>
<path d="M105.723 7.99254C105.573 7.6791 105.274 7.36567 104.975 7.36567L98.8476 6.42537L96.1574 0.626866C96.008 0.156716 95.5596 0 95.2607 0C94.9618 0 94.5135 0.156716 94.364 0.626866L91.6738 6.42537L85.5462 7.20896C85.2473 7.36567 84.9484 7.52239 84.799 7.99254C84.799 8.30597 84.799 8.77612 85.0979 8.93284L89.432 13.4776L88.3858 19.7463C88.3858 20.0597 88.5353 20.5299 88.8342 20.6866C88.9837 20.8433 89.1331 20.8433 89.432 20.8433C89.5815 20.8433 89.7309 20.8433 89.8804 20.6866L95.2607 17.8657L100.641 20.8433C100.791 20.8433 100.94 21 101.089 21C101.687 21 101.986 20.5299 101.986 20.0597V19.903L100.94 13.6343L105.424 8.93284C105.723 8.77612 105.723 8.30597 105.723 7.99254Z" fill="black" fill-opacity="0.15"/>
<mask id="mask0_1_150" style="mask-type:alpha" maskUnits="userSpaceOnUse" x="84" y="0" width="22" height="21">
<path d="M105.723 7.99254C105.573 7.6791 105.274 7.36567 104.975 7.36567L98.8476 6.42537L96.1574 0.626866C96.008 0.156716 95.5596 0 95.2607 0C94.9618 0 94.5135 0.156716 94.364 0.626866L91.6738 6.42537L85.5462 7.20896C85.2473 7.36567 84.9484 7.52239 84.799 7.99254C84.799 8.30597 84.799 8.77612 85.0979 8.93284L89.432 13.4776L88.3858 19.7463C88.3858 20.0597 88.5353 20.5299 88.8342 20.6866C88.9837 20.8433 89.1331 20.8433 89.432 20.8433C89.5815 20.8433 89.7309 20.8433 89.8804 20.6866L95.2607 17.8657L100.641 20.8433C100.791 20.8433 100.94 21 101.089 21C101.687 21 101.986 20.5299 101.986 20.0597V19.903L100.94 13.6343L105.424 8.93284C105.723 8.77612 105.723 8.30597 105.723 7.99254Z" fill="black"/>
</mask>
<g mask="url(#mask0_1_150)">
<rect x="82.8062" y="-1" width="11.9563" height="23" fill="#FBC917"/>
</g>
<path d="M77.8244 7.99254C77.675 7.6791 77.3761 7.36567 77.0772 7.36567L70.9496 6.42537L68.2594 0.626866C68.1099 0.156716 67.6616 0 67.3627 0C67.0638 0 66.6154 0.156716 66.4659 0.626866L63.7758 6.42537L57.6482 7.20896C57.3493 7.36567 57.0503 7.52239 56.9009 7.99254C56.9009 8.30597 56.9009 8.77612 57.1998 8.93284L61.534 13.4776L60.4878 19.7463C60.4878 20.0597 60.6372 20.5299 60.9362 20.6866C61.0856 20.8433 61.2351 20.8433 61.534 20.8433C61.6834 20.8433 61.8329 20.8433 61.9823 20.6866L67.3627 17.8657L72.743 20.8433C72.8925 20.8433 73.0419 21 73.1914 21C73.7892 21 74.0881 20.5299 74.0881 20.0597V19.903L73.0419 13.6343L77.5255 8.93284C77.8244 8.77612 77.8244 8.30597 77.8244 7.99254Z" fill="#FBC917"/>
<path d="M49.4282 7.99254C49.2787 7.6791 48.9798 7.36567 48.6809 7.36567L42.5533 6.42537L39.8631 0.626866C39.7137 0.156716 39.2653 0 38.9664 0C38.6675 0 38.2191 0.156716 38.0697 0.626866L35.3795 6.42537L29.2519 7.20896C28.953 7.36567 28.6541 7.52239 28.5046 7.99254C28.5046 8.30597 28.5046 8.77612 28.8035 8.93284L33.1377 13.4776L32.0915 19.7463C32.0915 20.0597 32.241 20.5299 32.5399 20.6866C32.6893 20.8433 32.8388 20.8433 33.1377 20.8433C33.2872 20.8433 33.4366 20.8433 33.5861 20.6866L38.9664 17.8657L44.3468 20.8433C44.4962 20.8433 44.6457 21 44.7951 21C45.3929 21 45.6918 20.5299 45.6918 20.0597V19.903L44.6457 13.6343L49.1293 8.93284C49.4282 8.77612 49.4282 8.30597 49.4282 7.99254Z" fill="#FBC917"/>
<path d="M21.0319 7.99254C20.8825 7.6791 20.5836 7.36567 20.2847 7.36567L14.1571 6.42537L11.4669 0.626866C11.3174 0.156716 10.8691 0 10.5702 0C10.2713 0 9.8229 0.156716 9.67345 0.626866L6.98328 6.42537L0.855668 7.20896C0.55676 7.36567 0.257852 7.52239 0.108398 7.99254C0.108398 8.30597 0.108398 8.77612 0.407306 8.93284L4.74147 13.4776L3.69529 19.7463C3.69529 20.0597 3.84475 20.5299 4.14365 20.6866C4.29311 20.8433 4.44256 20.8433 4.74147 20.8433C4.89092 20.8433 5.04038 20.8433 5.18983 20.6866L10.5702 17.8657L15.9505 20.8433C16.1 20.8433 16.2494 21 16.3989 21C16.9967 21 17.2956 20.5299 17.2956 20.0597V19.903L16.2494 13.6343L20.733 8.93284C21.0319 8.77612 21.0319 8.30597 21.0319 7.99254Z" fill="#FBC917"/>
</svg>
