<svg width="136" height="21" viewBox="0 0 136 21" fill="none" xmlns="http://www.w3.org/2000/svg">
<g id="stars">
<path id="star 5" d="M135.129 7.99254C134.979 7.6791 134.68 7.36567 134.382 7.36567L128.254 6.42537L125.564 0.626866C125.414 0.156716 124.966 0 124.667 0C124.368 0 123.92 0.156716 123.77 0.626866L121.08 6.42537L114.953 7.20896C114.654 7.36567 114.355 7.52239 114.205 7.99254C114.205 8.30597 114.205 8.77612 114.504 8.93284L118.838 13.4776L117.792 19.7463C117.792 20.0597 117.942 20.5299 118.241 20.6866C118.39 20.8433 118.539 20.8433 118.838 20.8433C118.988 20.8433 119.137 20.8433 119.287 20.6866L124.667 17.8657L130.047 20.8433C130.197 20.8433 130.346 21 130.496 21C131.094 21 131.392 20.5299 131.392 20.0597V19.903L130.346 13.6343L134.83 8.93284C135.129 8.77612 135.129 8.30597 135.129 7.99254Z" fill="#FBC917"/>
<path id="star 4" d="M106.733 7.99254C106.583 7.6791 106.284 7.36567 105.985 7.36567L99.8577 6.42537L97.1675 0.626866C97.0181 0.156716 96.5697 0 96.2708 0C95.9719 0 95.5235 0.156716 95.3741 0.626866L92.6839 6.42537L86.5563 7.20896C86.2574 7.36567 85.9585 7.52239 85.809 7.99254C85.809 8.30597 85.809 8.77612 86.1079 8.93284L90.4421 13.4776L89.3959 19.7463C89.3959 20.0597 89.5454 20.5299 89.8443 20.6866C89.9937 20.8433 90.1432 20.8433 90.4421 20.8433C90.5915 20.8433 90.741 20.8433 90.8905 20.6866L96.2708 17.8657L101.651 20.8433C101.801 20.8433 101.95 21 102.099 21C102.697 21 102.996 20.5299 102.996 20.0597V19.903L101.95 13.6343L106.434 8.93284C106.733 8.77612 106.733 8.30597 106.733 7.99254Z" fill="#FBC917"/>
<path id="star 3" d="M78.3363 7.99254C78.1869 7.6791 77.888 7.36567 77.5891 7.36567L71.4615 6.42537L68.7713 0.626866C68.6218 0.156716 68.1735 0 67.8746 0C67.5756 0 67.1273 0.156716 66.9778 0.626866L64.2877 6.42537L58.1601 7.20896C57.8611 7.36567 57.5622 7.52239 57.4128 7.99254C57.4128 8.30597 57.4128 8.77612 57.7117 8.93284L62.0459 13.4776L60.9997 19.7463C60.9997 20.0597 61.1491 20.5299 61.448 20.6866C61.5975 20.8433 61.7469 20.8433 62.0459 20.8433C62.1953 20.8433 62.3448 20.8433 62.4942 20.6866L67.8746 17.8657L73.2549 20.8433C73.4044 20.8433 73.5538 21 73.7033 21C74.3011 21 74.6 20.5299 74.6 20.0597V19.903L73.5538 13.6343L78.0374 8.93284C78.3363 8.77612 78.3363 8.30597 78.3363 7.99254Z" fill="#FBC917"/>
<path id="star 2" d="M49.9401 7.99254C49.7906 7.6791 49.4917 7.36567 49.1928 7.36567L43.0652 6.42537L40.375 0.626866C40.2256 0.156716 39.7772 0 39.4783 0C39.1794 0 38.731 0.156716 38.5816 0.626866L35.8914 6.42537L29.7638 7.20896C29.4649 7.36567 29.166 7.52239 29.0165 7.99254C29.0165 8.30597 29.0165 8.77612 29.3154 8.93284L33.6496 13.4776L32.6034 19.7463C32.6034 20.0597 32.7529 20.5299 33.0518 20.6866C33.2013 20.8433 33.3507 20.8433 33.6496 20.8433C33.7991 20.8433 33.9485 20.8433 34.098 20.6866L39.4783 17.8657L44.8587 20.8433C45.0081 20.8433 45.1576 21 45.307 21C45.9048 21 46.2037 20.5299 46.2037 20.0597V19.903L45.1576 13.6343L49.6412 8.93284C49.9401 8.77612 49.9401 8.30597 49.9401 7.99254Z" fill="#FBC917"/>
<path id="star 1" d="M21.5439 7.99254C21.3944 7.6791 21.0955 7.36567 20.7966 7.36567L14.669 6.42537L11.9788 0.626866C11.8293 0.156716 11.381 0 11.0821 0C10.7832 0 10.3348 0.156716 10.1854 0.626866L7.49518 6.42537L1.36757 7.20896C1.06866 7.36567 0.769754 7.52239 0.6203 7.99254C0.6203 8.30597 0.6203 8.77612 0.919208 8.93284L5.25337 13.4776L4.2072 19.7463C4.2072 20.0597 4.35665 20.5299 4.65556 20.6866C4.80501 20.8433 4.95446 20.8433 5.25337 20.8433C5.40283 20.8433 5.55228 20.8433 5.70173 20.6866L11.0821 17.8657L16.4624 20.8433C16.6119 20.8433 16.7613 21 16.9108 21C17.5086 21 17.8075 20.5299 17.8075 20.0597V19.903L16.7613 13.6343L21.2449 8.93284C21.5439 8.77612 21.5439 8.30597 21.5439 7.99254Z" fill="#FBC917"/>
</g>
</svg>
