<svg width="22" height="21" viewBox="0 0 22 21" fill="none" xmlns="http://www.w3.org/2000/svg">
<path d="M21.6169 7.99254C21.4675 7.6791 21.1686 7.36567 20.8697 7.36567L14.7421 6.42537L12.0519 0.626866C11.9024 0.156716 11.4541 0 11.1552 0C10.8563 0 10.4079 0.156716 10.2584 0.626866L7.56827 6.42537L1.44066 7.20896C1.14175 7.36567 0.842844 7.52239 0.69339 7.99254C0.69339 8.30597 0.69339 8.77612 0.992298 8.93284L5.32646 13.4776L4.28028 19.7463C4.28028 20.0597 4.42974 20.5299 4.72865 20.6866C4.8781 20.8433 5.02755 20.8433 5.32646 20.8433C5.47592 20.8433 5.62537 20.8433 5.77482 20.6866L11.1552 17.8657L16.5355 20.8433C16.685 20.8433 16.8344 21 16.9839 21C17.5817 21 17.8806 20.5299 17.8806 20.0597V19.903L16.8344 13.6343L21.318 8.93284C21.6169 8.77612 21.6169 8.30597 21.6169 7.99254Z" fill="black" fill-opacity="0.15"/>
</svg>
