<svg width="22" height="21" viewBox="0 0 22 21" fill="none" xmlns="http://www.w3.org/2000/svg">
<path d="M21.7225 7.99254C21.573 7.6791 21.2741 7.36567 20.9752 7.36567L14.8476 6.42537L12.1574 0.626866C12.008 0.156716 11.5596 0 11.2607 0C10.9618 0 10.5135 0.156716 10.364 0.626866L7.67383 6.42537L1.54622 7.20896C1.24731 7.36567 0.948404 7.52239 0.79895 7.99254C0.79895 8.30597 0.79895 8.77612 1.09786 8.93284L5.43202 13.4776L4.38584 19.7463C4.38584 20.0597 4.5353 20.5299 4.83421 20.6866C4.98366 20.8433 5.13311 20.8433 5.43202 20.8433C5.58148 20.8433 5.73093 20.8433 5.88038 20.6866L11.2607 17.8657L16.6411 20.8433C16.7905 20.8433 16.94 21 17.0894 21C17.6872 21 17.9862 20.5299 17.9862 20.0597V19.903L16.94 13.6343L21.4236 8.93284C21.7225 8.77612 21.7225 8.30597 21.7225 7.99254Z" fill="black" fill-opacity="0.15"/>
<mask id="mask0_1_152" style="mask-type:alpha" maskUnits="userSpaceOnUse" x="0" y="0" width="22" height="21">
<path d="M21.7225 7.99254C21.573 7.6791 21.2741 7.36567 20.9752 7.36567L14.8476 6.42537L12.1574 0.626866C12.008 0.156716 11.5596 0 11.2607 0C10.9618 0 10.5135 0.156716 10.364 0.626866L7.67383 6.42537L1.54622 7.20896C1.24731 7.36567 0.948404 7.52239 0.79895 7.99254C0.79895 8.30597 0.79895 8.77612 1.09786 8.93284L5.43202 13.4776L4.38584 19.7463C4.38584 20.0597 4.5353 20.5299 4.83421 20.6866C4.98366 20.8433 5.13311 20.8433 5.43202 20.8433C5.58148 20.8433 5.73093 20.8433 5.88038 20.6866L11.2607 17.8657L16.6411 20.8433C16.7905 20.8433 16.94 21 17.0894 21C17.6872 21 17.9862 20.5299 17.9862 20.0597V19.903L16.94 13.6343L21.4236 8.93284C21.7225 8.77612 21.7225 8.30597 21.7225 7.99254Z" fill="black"/>
</mask>
<g mask="url(#mask0_1_152)">
<rect x="-1.19376" y="-1" width="11.9563" height="23" fill="#FBC917"/>
</g>
</svg>
